<svg width="38" height="50" viewBox="0 0 38 50" fill="none" xmlns="http://www.w3.org/2000/svg">
<g clip-path="url(#clip0_15_4)">
<path d="M4.75 0C2.1276 0 0 2.09961 0 4.6875V45.3125C0 47.9004 2.1276 50 4.75 50H14.25V42.1875C14.25 39.5996 16.3776 37.5 19 37.5C21.6224 37.5 23.75 39.5996 23.75 42.1875V50H33.25C35.8724 50 38 47.9004 38 45.3125V4.6875C38 2.09961 35.8724 0 33.25 0H4.75ZM6.33333 23.4375C6.33333 22.5781 7.04583 21.875 7.91667 21.875H11.0833C11.9542 21.875 12.6667 22.5781 12.6667 23.4375V26.5625C12.6667 27.4219 11.9542 28.125 11.0833 28.125H7.91667C7.04583 28.125 6.33333 27.4219 6.33333 26.5625V23.4375ZM17.4167 21.875H20.5833C21.4542 21.875 22.1667 22.5781 22.1667 23.4375V26.5625C22.1667 27.4219 21.4542 28.125 20.5833 28.125H17.4167C16.5458 28.125 15.8333 27.4219 15.8333 26.5625V23.4375C15.8333 22.5781 16.5458 21.875 17.4167 21.875ZM25.3333 23.4375C25.3333 22.5781 26.0458 21.875 26.9167 21.875H30.0833C30.9542 21.875 31.6667 22.5781 31.6667 23.4375V26.5625C31.6667 27.4219 30.9542 28.125 30.0833 28.125H26.9167C26.0458 28.125 25.3333 27.4219 25.3333 26.5625V23.4375ZM7.91667 9.375H11.0833C11.9542 9.375 12.6667 10.0781 12.6667 10.9375V14.0625C12.6667 14.9219 11.9542 15.625 11.0833 15.625H7.91667C7.04583 15.625 6.33333 14.9219 6.33333 14.0625V10.9375C6.33333 10.0781 7.04583 9.375 7.91667 9.375ZM15.8333 10.9375C15.8333 10.0781 16.5458 9.375 17.4167 9.375H20.5833C21.4542 9.375 22.1667 10.0781 22.1667 10.9375V14.0625C22.1667 14.9219 21.4542 15.625 20.5833 15.625H17.4167C16.5458 15.625 15.8333 14.9219 15.8333 14.0625V10.9375ZM26.9167 9.375H30.0833C30.9542 9.375 31.6667 10.0781 31.6667 10.9375V14.0625C31.6667 14.9219 30.9542 15.625 30.0833 15.625H26.9167C26.0458 15.625 25.3333 14.9219 25.3333 14.0625V10.9375C25.3333 10.0781 26.0458 9.375 26.9167 9.375Z" fill="#CE8D55"/>
</g>
<defs>
<clipPath id="clip0_15_4">
<rect width="38" height="50" fill="white"/>
</clipPath>
</defs>
</svg>
