<svg width="63" height="50" viewBox="0 0 63 50" fill="none" xmlns="http://www.w3.org/2000/svg">
<path d="M20.4752 34.4501C31.7857 34.4501 40.9502 26.6932 40.9502 17.125C40.9502 7.55692 31.7857 -0.199951 20.4752 -0.199951C9.16475 -0.199951 0.000222852 7.55692 0.000222852 17.125C0.000222852 20.9247 1.44725 24.439 3.89835 27.3035C3.55382 28.2288 3.04194 29.0458 2.50054 29.7349C2.02804 30.3452 1.54569 30.8177 1.19132 31.1425C1.01413 31.3 0.866473 31.428 0.768035 31.5068C0.718817 31.5461 0.679442 31.5757 0.659754 31.5855L0.640067 31.6052C0.0986603 32.0088 -0.13759 32.7175 0.0789729 33.3574C0.295535 33.9972 0.896004 34.4501 1.57522 34.4501C3.72116 34.4501 5.88679 33.8988 7.68819 33.2196C8.59382 32.875 9.44038 32.4911 10.1688 32.0974C13.2007 33.5936 16.7149 34.4501 20.4752 34.4501ZM44.1002 17.125C44.1002 28.1796 34.3451 36.5074 22.7885 37.5016C25.1805 44.8254 33.1146 50.2001 42.5252 50.2001C46.2855 50.2001 49.7998 49.3436 52.8316 47.8474C53.5699 48.2411 54.4066 48.625 55.3123 48.9696C57.1137 49.6488 59.2793 50.2001 61.4252 50.2001C62.1044 50.2001 62.7148 49.7571 62.9215 49.1074C63.1282 48.4577 62.9018 47.749 62.3505 47.3454L62.3308 47.3257C62.3112 47.306 62.2718 47.2863 62.2226 47.2469C62.1241 47.1682 61.9765 47.05 61.7993 46.8827C61.4449 46.5579 60.9626 46.0854 60.4901 45.4751C59.9487 44.786 59.4368 43.9591 59.0923 43.0436C61.5433 40.189 62.9904 36.6747 62.9904 32.8652C62.9904 23.7302 54.633 16.2391 44.0313 15.5894C44.0707 16.0915 44.0904 16.6033 44.0904 17.1152L44.1002 17.125Z" fill="#CE8D55"/>
</svg>
