<svg width="40" height="44" viewBox="0 0 40 44" fill="none" xmlns="http://www.w3.org/2000/svg">
<path d="M0 40.75C0 42.4785 1.27679 43.875 2.85714 43.875C4.4375 43.875 5.71429 42.4785 5.71429 40.75V7.9375C5.71429 7.07812 6.35714 6.375 7.14286 6.375H37.1429C38.7232 6.375 40 4.97852 40 3.25C40 1.52148 38.7232 0.125 37.1429 0.125H7.14286C3.19643 0.125 0 3.62109 0 7.9375V40.75ZM14.2857 40.75C14.2857 39.9212 13.9847 39.1263 13.4489 38.5403C12.9131 37.9542 12.1863 37.625 11.4286 37.625C10.6708 37.625 9.94409 37.9542 9.40827 38.5403C8.87245 39.1263 8.57143 39.9212 8.57143 40.75C8.57143 41.5788 8.87245 42.3737 9.40827 42.9597C9.94409 43.5458 10.6708 43.875 11.4286 43.875C12.1863 43.875 12.9131 43.5458 13.4489 42.9597C13.9847 42.3737 14.2857 41.5788 14.2857 40.75ZM31.4286 40.75C31.4286 39.9212 31.1276 39.1263 30.5917 38.5403C30.0559 37.9542 29.3292 37.625 28.5714 37.625C27.8137 37.625 27.0869 37.9542 26.5511 38.5403C26.0153 39.1263 25.7143 39.9212 25.7143 40.75C25.7143 41.5788 26.0153 42.3737 26.5511 42.9597C27.0869 43.5458 27.8137 43.875 28.5714 43.875C29.3292 43.875 30.0559 43.5458 30.5917 42.9597C31.1276 42.3737 31.4286 41.5788 31.4286 40.75ZM22.8571 40.75C22.8571 39.9212 22.5561 39.1263 22.0203 38.5403C21.4845 37.9542 20.7578 37.625 20 37.625C19.2422 37.625 18.5155 37.9542 17.9797 38.5403C17.4439 39.1263 17.1429 39.9212 17.1429 40.75C17.1429 41.5788 17.4439 42.3737 17.9797 42.9597C18.5155 43.5458 19.2422 43.875 20 43.875C20.7578 43.875 21.4845 43.5458 22.0203 42.9597C22.5561 42.3737 22.8571 41.5788 22.8571 40.75ZM40 40.75C40 39.9212 39.699 39.1263 39.1632 38.5403C38.6273 37.9542 37.9006 37.625 37.1429 37.625C36.3851 37.625 35.6584 37.9542 35.1226 38.5403C34.5867 39.1263 34.2857 39.9212 34.2857 40.75C34.2857 41.5788 34.5867 42.3737 35.1226 42.9597C35.6584 43.5458 36.3851 43.875 37.1429 43.875C37.9006 43.875 38.6273 43.5458 39.1632 42.9597C39.699 42.3737 40 41.5788 40 40.75ZM37.1429 25.125C37.9006 25.125 38.6273 24.7958 39.1632 24.2097C39.699 23.6237 40 22.8288 40 22C40 21.1712 39.699 20.3763 39.1632 19.7903C38.6273 19.2042 37.9006 18.875 37.1429 18.875C36.3851 18.875 35.6584 19.2042 35.1226 19.7903C34.5867 20.3763 34.2857 21.1712 34.2857 22C34.2857 22.8288 34.5867 23.6237 35.1226 24.2097C35.6584 24.7958 36.3851 25.125 37.1429 25.125ZM37.1429 28.25C36.3851 28.25 35.6584 28.5792 35.1226 29.1653C34.5867 29.7513 34.2857 30.5462 34.2857 31.375C34.2857 32.2038 34.5867 32.9987 35.1226 33.5847C35.6584 34.1708 36.3851 34.5 37.1429 34.5C37.9006 34.5 38.6273 34.1708 39.1632 33.5847C39.699 32.9987 40 32.2038 40 31.375C40 30.5462 39.699 29.7513 39.1632 29.1653C38.6273 28.5792 37.9006 28.25 37.1429 28.25ZM37.1429 15.75C37.9006 15.75 38.6273 15.4208 39.1632 14.8347C39.699 14.2487 40 13.4538 40 12.625C40 11.7962 39.699 11.0013 39.1632 10.4153C38.6273 9.82924 37.9006 9.5 37.1429 9.5C36.3851 9.5 35.6584 9.82924 35.1226 10.4153C34.5867 11.0013 34.2857 11.7962 34.2857 12.625C34.2857 13.4538 34.5867 14.2487 35.1226 14.8347C35.6584 15.4208 36.3851 15.75 37.1429 15.75Z" fill="#CE8D55"/>
</svg>
