<svg width="39" height="38" viewBox="0 0 39 38" fill="none" xmlns="http://www.w3.org/2000/svg">
<path d="M36.3125 11.125L21.875 1C20.4375 3.8743e-08 18.5625 3.8743e-08 17.125 1L2.6875 11.125C1.5625 11.875 0.9375 13.1875 0.9375 14.5V33.6875C0.9375 35.9375 2.8125 37.8125 5.0625 37.8125H34C36.25 37.8125 38.125 35.9375 38.125 33.6875V14.5C38.125 13.125 37.4375 11.875 36.3125 11.125ZM25.1875 34.9375H13.8125V27.75C13.8125 27.3125 14 26.9375 14.375 26.6875L18.75 23.625C19.1875 23.3125 19.8125 23.3125 20.25 23.625L24.625 26.6875C25 26.9375 25.1875 27.3125 25.1875 27.75V34.9375V34.9375ZM35.3125 33.625C35.3125 34.375 34.75 34.9375 34 34.9375H28V27.75C28 26.4375 27.375 25.125 26.25 24.375L21.875 21.3125C20.4375 20.3125 18.5625 20.3125 17.125 21.3125L12.75 24.375C11.625 25.125 11 26.4375 11 27.75V34.9375H5C4.25 34.9375 3.6875 34.375 3.6875 33.625V14.5C3.6875 14.0625 3.875 13.6875 4.25 13.4375L18.75 3.25C19 3.0625 19.25 3 19.5 3C19.75 3 20 3.0625 20.25 3.25L34.75 13.375C35.125 13.625 35.3125 14 35.3125 14.4375V33.625V33.625Z" fill="#CE8D55"/>
</svg>
