<svg width="39" height="29" viewBox="0 0 39 29" fill="none" xmlns="http://www.w3.org/2000/svg">
<path d="M34.5 0H4.5C2.375 0 0.5625 1.75 0.5625 3.9375V24.1875C0.5625 26.3125 2.3125 28.125 4.5 28.125H34.5C36.625 28.125 38.4375 26.375 38.4375 24.1875V3.875C38.4375 1.75 36.625 0 34.5 0ZM34.5 2.8125C34.5625 2.8125 34.625 2.8125 34.6875 2.8125L19.5 12.5625L4.3125 2.8125C4.375 2.8125 4.4375 2.8125 4.5 2.8125H34.5ZM34.5 25.1875H4.5C3.875 25.1875 3.375 24.6875 3.375 24.0625V5.5625L18 14.9375C18.4375 15.25 18.9375 15.375 19.4375 15.375C19.9375 15.375 20.4375 15.25 20.875 14.9375L35.5 5.5625V24.125C35.625 24.75 35.125 25.1875 34.5 25.1875Z" fill="#CE8D55"/>
</svg>
