<svg width="50" height="50" viewBox="0 0 50 50" fill="none" xmlns="http://www.w3.org/2000/svg">
<path d="M0.0195312 45.791C0.263672 48.1543 2.25586 50 4.6875 50H14.0625H45.3125C47.9004 50 50 47.9004 50 45.3125V35.9375C50 33.3496 47.9004 31.25 45.3125 31.25H40.625V39.0625C40.625 39.9219 39.9219 40.625 39.0625 40.625C38.2031 40.625 37.5 39.9219 37.5 39.0625V31.25H31.25V39.0625C31.25 39.9219 30.5469 40.625 29.6875 40.625C28.8281 40.625 28.125 39.9219 28.125 39.0625V31.25H21.875V39.0625C21.875 39.9219 21.1719 40.625 20.3125 40.625C19.4531 40.625 18.75 39.9219 18.75 39.0625V31.25H10.9375C10.0781 31.25 9.375 30.5469 9.375 29.6875C9.375 28.8281 10.0781 28.125 10.9375 28.125H18.75V21.875H10.9375C10.0781 21.875 9.375 21.1719 9.375 20.3125C9.375 19.4531 10.0781 18.75 10.9375 18.75H18.75V12.5H10.9375C10.0781 12.5 9.375 11.7969 9.375 10.9375C9.375 10.0781 10.0781 9.375 10.9375 9.375H18.75V4.6875C18.75 2.09961 16.6504 0 14.0625 0H4.6875C2.09961 0 0 2.09961 0 4.6875V35.9375V45.3125C0 45.4785 0.00976562 45.6348 0.0195312 45.791Z" fill="#CE8D55"/>
</svg>
