<svg width="124" height="108" viewBox="0 0 124 108" fill="none" xmlns="http://www.w3.org/2000/svg">
<path d="M5.11027 20.0674H119.404C121.832 20.0674 123.8 18.0994 123.8 15.6715V4.68165C123.8 2.25373 121.832 0.285736 119.404 0.285736H5.11027C2.68235 0.285736 0.714355 2.25373 0.714355 4.68165V15.6715C0.714355 18.0994 2.68235 20.0674 5.11027 20.0674ZM5.11027 64.0266H119.404C121.832 64.0266 123.8 62.0586 123.8 59.6306V48.6408C123.8 46.2129 121.832 44.2449 119.404 44.2449H5.11027C2.68235 44.2449 0.714355 46.2129 0.714355 48.6408V59.6306C0.714355 62.0586 2.68235 64.0266 5.11027 64.0266ZM5.11027 107.986H119.404C121.832 107.986 123.8 106.018 123.8 103.59V92.6C123.8 90.1721 121.832 88.2041 119.404 88.2041H5.11027C2.68235 88.2041 0.714355 90.1721 0.714355 92.6V103.59C0.714355 106.018 2.68235 107.986 5.11027 107.986Z" fill="#A64468"/>
</svg>
