<svg width="50" height="50" viewBox="0 0 50 50" fill="none" xmlns="http://www.w3.org/2000/svg">
<path d="M23.5156 0.468719C24.4434 1.03513 25 2.04098 25 3.12497V10.1562H33.6914C34.043 8.80856 35.2637 7.81247 36.7188 7.81247H45.3125C47.9004 7.81247 50 9.91208 50 12.5C50 15.0879 47.9004 17.1875 45.3125 17.1875H36.7188C35.2637 17.1875 34.043 16.1914 33.6914 14.8437H25V21.875C25 22.959 24.4434 23.9648 23.5156 24.5312C22.5879 25.0976 21.4453 25.1562 20.4785 24.6679L1.72852 15.2929C0.664063 14.7656 0 13.6816 0 12.5C0 11.3183 0.664063 10.2343 1.72852 9.707L20.4785 0.332C21.4453 -0.156281 22.5977 -0.0976873 23.5156 0.468719ZM28.125 25C28.125 23.2715 29.5215 21.875 31.25 21.875H46.875C48.6035 21.875 50 23.2715 50 25V31.25C50 32.9785 48.6035 34.375 46.875 34.375H31.25C29.5215 34.375 28.125 32.9785 28.125 31.25V25ZM3.125 37.5H12.5C14.2285 37.5 15.625 38.8965 15.625 40.625V46.875C15.625 48.6035 14.2285 50 12.5 50H3.125C1.39648 50 0 48.6035 0 46.875V40.625C0 38.8965 1.39648 37.5 3.125 37.5ZM21.875 37.5H46.875C48.6035 37.5 50 38.8965 50 40.625V46.875C50 48.6035 48.6035 50 46.875 50H21.875C20.1465 50 18.75 48.6035 18.75 46.875V40.625C18.75 38.8965 20.1465 37.5 21.875 37.5Z" fill="#CE8D55"/>
</svg>
