<svg width="50" height="50" viewBox="0 0 50 50" fill="none" xmlns="http://www.w3.org/2000/svg">
<path d="M45.4103 0.683431C44.5802 -0.146647 43.2618 -0.234537 42.3243 0.478353L32.1681 8.29085C31.5919 8.73031 31.2501 9.42367 31.2501 10.1463V15.4295L22.8907 23.7889C23.545 24.1991 24.1603 24.6971 24.7267 25.2635C25.2931 25.8299 25.7911 26.4549 26.2013 27.0994L34.5607 18.7498H39.8439C40.5763 18.7498 41.2599 18.408 41.6993 17.8319L49.5118 7.67562C50.2345 6.73812 50.1466 5.41976 49.3068 4.58968L45.4103 0.683431ZM11.8556 27.4803L0.918091 38.4178C-0.302612 39.6385 -0.302612 41.6209 0.918091 42.8416L7.16809 49.0916C8.38879 50.3123 10.3712 50.3123 11.5919 49.0916L22.5294 38.1541C25.4786 35.2049 25.4786 30.4295 22.5294 27.4803C19.5802 24.5311 14.8048 24.5311 11.8556 27.4803Z" fill="#CE8D55"/>
</svg>
