<svg width="50" height="50" viewBox="0 0 50 50" fill="none" xmlns="http://www.w3.org/2000/svg">
<g clip-path="url(#clip0_15_7)">
<path d="M7.6758 0.488234C6.74807 -0.234422 5.42971 -0.146531 4.58986 0.683547L0.683615 4.5898C-0.146464 5.41988 -0.234354 6.73823 0.478536 7.67573L8.29104 17.832C8.73049 18.4082 9.42385 18.75 10.1465 18.75H15.4297L26.0742 29.3945C24.6387 32.2265 25.0977 35.7812 27.4707 38.1445L38.4082 49.082C39.6289 50.3027 41.6114 50.3027 42.8321 49.082L49.0821 42.832C50.3028 41.6113 50.3028 39.6289 49.0821 38.4082L38.1446 27.4707C35.7813 25.1074 32.2266 24.6386 29.3946 26.0742L18.75 15.4296V10.1464C18.75 9.41402 18.4082 8.73042 17.8321 8.29097L7.6758 0.488234ZM1.94338 38.6816C0.703146 39.9218 2.07929e-05 41.6113 2.07929e-05 43.3691C2.07929e-05 47.0312 2.96877 50 6.63088 50C8.38869 50 10.0781 49.2968 11.3184 48.0566L22.8223 36.5527C22.0606 34.5117 21.9434 32.2949 22.4707 30.1953L16.4453 24.1699L1.94338 38.6816ZM50 14.0625C50 13.0371 49.8926 12.041 49.6875 11.0839C49.4531 9.99019 48.1153 9.70698 47.3242 10.498L41.084 16.7382C40.791 17.0312 40.3906 17.1972 39.9805 17.1972L34.375 17.1875C33.5156 17.1875 32.8125 16.4843 32.8125 15.625V10.0195C32.8125 9.60933 32.9785 9.20894 33.2715 8.91597L39.5117 2.67573C40.3028 1.88472 40.0196 0.546828 38.9258 0.312453C37.959 0.107375 36.9629 -4.67638e-05 35.9375 -4.67638e-05C28.1739 -4.67638e-05 21.875 6.29878 21.875 14.0625V14.1406L30.2051 22.4707C33.7207 21.582 37.6074 22.5195 40.3613 25.2734L41.8946 26.8066C46.6797 24.5605 50 19.6972 50 14.0625ZM5.46877 42.1875C5.46877 41.5659 5.7157 40.9697 6.15524 40.5302C6.59478 40.0906 7.19092 39.8437 7.81252 39.8437C8.43412 39.8437 9.03026 40.0906 9.4698 40.5302C9.90934 40.9697 10.1563 41.5659 10.1563 42.1875C10.1563 42.8091 9.90934 43.4052 9.4698 43.8447C9.03026 44.2843 8.43412 44.5312 7.81252 44.5312C7.19092 44.5312 6.59478 44.2843 6.15524 43.8447C5.7157 43.4052 5.46877 42.8091 5.46877 42.1875Z" fill="#CE8D55"/>
</g>
<defs>
<clipPath id="clip0_15_7">
<rect width="50" height="50" fill="white"/>
</clipPath>
</defs>
</svg>
