<svg width="38" height="50" viewBox="0 0 38 50" fill="none" xmlns="http://www.w3.org/2000/svg">
<g clip-path="url(#clip0_14_111)">
<path d="M16.0708 0.585938C15.9224 0.234375 15.576 0 15.1901 0H13.3099C12.924 0 12.5677 0.234375 12.4292 0.585938L10.3807 5.63477C10.0641 6.41602 8.93594 6.41602 8.61927 5.63477L6.57083 0.585938C6.4224 0.234375 6.07604 0 5.6901 0H4.75C2.1276 0 0 2.09961 0 4.6875V21.875V24.0625V25H0.95H37.05H38V24.0625V21.875V4.6875C38 2.09961 35.8724 0 33.25 0H22.8099C22.424 0 22.0677 0.234375 21.9292 0.585938L19.8807 5.63477C19.5641 6.41602 18.4359 6.41602 18.1193 5.63477L16.0708 0.585938ZM0 28.125V31.25C0 34.6973 2.8401 37.5 6.33333 37.5H12.6667V43.75C12.6667 47.1973 15.5068 50 19 50C22.4932 50 25.3333 47.1973 25.3333 43.75V37.5H31.6667C35.1599 37.5 38 34.6973 38 31.25V28.125H0ZM19 42.1875C19.4199 42.1875 19.8227 42.3521 20.1196 42.6451C20.4165 42.9382 20.5833 43.3356 20.5833 43.75C20.5833 44.1644 20.4165 44.5618 20.1196 44.8549C19.8227 45.1479 19.4199 45.3125 19 45.3125C18.5801 45.3125 18.1773 45.1479 17.8804 44.8549C17.5835 44.5618 17.4167 44.1644 17.4167 43.75C17.4167 43.3356 17.5835 42.9382 17.8804 42.6451C18.1773 42.3521 18.5801 42.1875 19 42.1875Z" fill="#CE8D55"/>
</g>
<defs>
<clipPath id="clip0_14_111">
<rect width="38" height="50" fill="white"/>
</clipPath>
</defs>
</svg>
