<svg width="44" height="44" viewBox="0 0 44 44" fill="none" xmlns="http://www.w3.org/2000/svg">
<path d="M3.14286 43.875C2.30932 43.875 1.50992 43.5458 0.920522 42.9597C0.331122 42.3737 0 41.5788 0 40.75C0 39.9212 0.331122 39.1263 0.920522 38.5403C1.50992 37.9542 2.30932 37.625 3.14286 37.625C3.97639 37.625 4.77579 37.9542 5.36519 38.5403C5.95459 39.1263 6.28571 39.9212 6.28571 40.75C6.28571 41.5788 5.95459 42.3737 5.36519 42.9597C4.77579 43.5458 3.97639 43.875 3.14286 43.875ZM12.5714 37.625C13.405 37.625 14.2044 37.9542 14.7938 38.5403C15.3832 39.1263 15.7143 39.9212 15.7143 40.75C15.7143 41.5788 15.3832 42.3737 14.7938 42.9597C14.2044 43.5458 13.405 43.875 12.5714 43.875C11.7379 43.875 10.9385 43.5458 10.3491 42.9597C9.75969 42.3737 9.42857 41.5788 9.42857 40.75C9.42857 39.9212 9.75969 39.1263 10.3491 38.5403C10.9385 37.9542 11.7379 37.625 12.5714 37.625ZM12.5714 0.125C13.405 0.125 14.2044 0.45424 14.7938 1.04029C15.3832 1.62634 15.7143 2.4212 15.7143 3.25C15.7143 4.0788 15.3832 4.87366 14.7938 5.45971C14.2044 6.04576 13.405 6.375 12.5714 6.375C11.7379 6.375 10.9385 6.04576 10.3491 5.45971C9.75969 4.87366 9.42857 4.0788 9.42857 3.25C9.42857 2.4212 9.75969 1.62634 10.3491 1.04029C10.9385 0.45424 11.7379 0.125 12.5714 0.125ZM12.5714 25.125C11.7379 25.125 10.9385 24.7958 10.3491 24.2097C9.75969 23.6237 9.42857 22.8288 9.42857 22C9.42857 21.1712 9.75969 20.3763 10.3491 19.7903C10.9385 19.2042 11.7379 18.875 12.5714 18.875C13.405 18.875 14.2044 19.2042 14.7938 19.7903C15.3832 20.3763 15.7143 21.1712 15.7143 22C15.7143 22.8288 15.3832 23.6237 14.7938 24.2097C14.2044 24.7958 13.405 25.125 12.5714 25.125ZM31.4286 37.625C32.2621 37.625 33.0615 37.9542 33.6509 38.5403C34.2403 39.1263 34.5714 39.9212 34.5714 40.75C34.5714 41.5788 34.2403 42.3737 33.6509 42.9597C33.0615 43.5458 32.2621 43.875 31.4286 43.875C30.595 43.875 29.7956 43.5458 29.2062 42.9597C28.6168 42.3737 28.2857 41.5788 28.2857 40.75C28.2857 39.9212 28.6168 39.1263 29.2062 38.5403C29.7956 37.9542 30.595 37.625 31.4286 37.625ZM31.4286 6.375C30.595 6.375 29.7956 6.04576 29.2062 5.45971C28.6168 4.87366 28.2857 4.0788 28.2857 3.25C28.2857 2.4212 28.6168 1.62634 29.2062 1.04029C29.7956 0.45424 30.595 0.125 31.4286 0.125C32.2621 0.125 33.0615 0.45424 33.6509 1.04029C34.2403 1.62634 34.5714 2.4212 34.5714 3.25C34.5714 4.0788 34.2403 4.87366 33.6509 5.45971C33.0615 6.04576 32.2621 6.375 31.4286 6.375ZM31.4286 18.875C32.2621 18.875 33.0615 19.2042 33.6509 19.7903C34.2403 20.3763 34.5714 21.1712 34.5714 22C34.5714 22.8288 34.2403 23.6237 33.6509 24.2097C33.0615 24.7958 32.2621 25.125 31.4286 25.125C30.595 25.125 29.7956 24.7958 29.2062 24.2097C28.6168 23.6237 28.2857 22.8288 28.2857 22C28.2857 21.1712 28.6168 20.3763 29.2062 19.7903C29.7956 19.2042 30.595 18.875 31.4286 18.875ZM22 43.875C21.1665 43.875 20.3671 43.5458 19.7777 42.9597C19.1883 42.3737 18.8571 41.5788 18.8571 40.75C18.8571 39.9212 19.1883 39.1263 19.7777 38.5403C20.3671 37.9542 21.1665 37.625 22 37.625C22.8335 37.625 23.6329 37.9542 24.2223 38.5403C24.8117 39.1263 25.1429 39.9212 25.1429 40.75C25.1429 41.5788 24.8117 42.3737 24.2223 42.9597C23.6329 43.5458 22.8335 43.875 22 43.875ZM22 0.125C22.8335 0.125 23.6329 0.45424 24.2223 1.04029C24.8117 1.62634 25.1429 2.4212 25.1429 3.25C25.1429 4.0788 24.8117 4.87366 24.2223 5.45971C23.6329 6.04576 22.8335 6.375 22 6.375C21.1665 6.375 20.3671 6.04576 19.7777 5.45971C19.1883 4.87366 18.8571 4.0788 18.8571 3.25C18.8571 2.4212 19.1883 1.62634 19.7777 1.04029C20.3671 0.45424 21.1665 0.125 22 0.125ZM22 25.125C21.1665 25.125 20.3671 24.7958 19.7777 24.2097C19.1883 23.6237 18.8571 22.8288 18.8571 22C18.8571 21.1712 19.1883 20.3763 19.7777 19.7903C20.3671 19.2042 21.1665 18.875 22 18.875C22.8335 18.875 23.6329 19.2042 24.2223 19.7903C24.8117 20.3763 25.1429 21.1712 25.1429 22C25.1429 22.8288 24.8117 23.6237 24.2223 24.2097C23.6329 24.7958 22.8335 25.125 22 25.125ZM40.8571 37.625C41.6907 37.625 42.4901 37.9542 43.0795 38.5403C43.6689 39.1263 44 39.9212 44 40.75C44 41.5788 43.6689 42.3737 43.0795 42.9597C42.4901 43.5458 41.6907 43.875 40.8571 43.875C40.0236 43.875 39.2242 43.5458 38.6348 42.9597C38.0454 42.3737 37.7143 41.5788 37.7143 40.75C37.7143 39.9212 38.0454 39.1263 38.6348 38.5403C39.2242 37.9542 40.0236 37.625 40.8571 37.625ZM40.8571 0.125C41.6907 0.125 42.4901 0.45424 43.0795 1.04029C43.6689 1.62634 44 2.4212 44 3.25C44 4.0788 43.6689 4.87366 43.0795 5.45971C42.4901 6.04576 41.6907 6.375 40.8571 6.375C40.0236 6.375 39.2242 6.04576 38.6348 5.45971C38.0454 4.87366 37.7143 4.0788 37.7143 3.25C37.7143 2.4212 38.0454 1.62634 38.6348 1.04029C39.2242 0.45424 40.0236 0.125 40.8571 0.125ZM3.14286 6.375C2.30932 6.375 1.50992 6.04576 0.920522 5.45971C0.331122 4.87366 0 4.0788 0 3.25C0 2.4212 0.331122 1.62634 0.920522 1.04029C1.50992 0.45424 2.30932 0.125 3.14286 0.125C3.97639 0.125 4.77579 0.45424 5.36519 1.04029C5.95459 1.62634 6.28571 2.4212 6.28571 3.25C6.28571 4.0788 5.95459 4.87366 5.36519 5.45971C4.77579 6.04576 3.97639 6.375 3.14286 6.375ZM40.8571 18.875C41.6907 18.875 42.4901 19.2042 43.0795 19.7903C43.6689 20.3763 44 21.1712 44 22C44 22.8288 43.6689 23.6237 43.0795 24.2097C42.4901 24.7958 41.6907 25.125 40.8571 25.125C40.0236 25.125 39.2242 24.7958 38.6348 24.2097C38.0454 23.6237 37.7143 22.8288 37.7143 22C37.7143 21.1712 38.0454 20.3763 38.6348 19.7903C39.2242 19.2042 40.0236 18.875 40.8571 18.875ZM3.14286 25.125C2.30932 25.125 1.50992 24.7958 0.920522 24.2097C0.331122 23.6237 0 22.8288 0 22C0 21.1712 0.331122 20.3763 0.920522 19.7903C1.50992 19.2042 2.30932 18.875 3.14286 18.875C3.97639 18.875 4.77579 19.2042 5.36519 19.7903C5.95459 20.3763 6.28571 21.1712 6.28571 22C6.28571 22.8288 5.95459 23.6237 5.36519 24.2097C4.77579 24.7958 3.97639 25.125 3.14286 25.125ZM22 28.25C22.8335 28.25 23.6329 28.5792 24.2223 29.1653C24.8117 29.7513 25.1429 30.5462 25.1429 31.375C25.1429 32.2038 24.8117 32.9987 24.2223 33.5847C23.6329 34.1708 22.8335 34.5 22 34.5C21.1665 34.5 20.3671 34.1708 19.7777 33.5847C19.1883 32.9987 18.8571 32.2038 18.8571 31.375C18.8571 30.5462 19.1883 29.7513 19.7777 29.1653C20.3671 28.5792 21.1665 28.25 22 28.25ZM40.8571 34.5C40.0236 34.5 39.2242 34.1708 38.6348 33.5847C38.0454 32.9987 37.7143 32.2038 37.7143 31.375C37.7143 30.5462 38.0454 29.7513 38.6348 29.1653C39.2242 28.5792 40.0236 28.25 40.8571 28.25C41.6907 28.25 42.4901 28.5792 43.0795 29.1653C43.6689 29.7513 44 30.5462 44 31.375C44 32.2038 43.6689 32.9987 43.0795 33.5847C42.4901 34.1708 41.6907 34.5 40.8571 34.5ZM3.14286 28.25C3.97639 28.25 4.77579 28.5792 5.36519 29.1653C5.95459 29.7513 6.28571 30.5462 6.28571 31.375C6.28571 32.2038 5.95459 32.9987 5.36519 33.5847C4.77579 34.1708 3.97639 34.5 3.14286 34.5C2.30932 34.5 1.50992 34.1708 0.920522 33.5847C0.331122 32.9987 0 32.2038 0 31.375C0 30.5462 0.331122 29.7513 0.920522 29.1653C1.50992 28.5792 2.30932 28.25 3.14286 28.25ZM40.8571 15.75C40.0236 15.75 39.2242 15.4208 38.6348 14.8347C38.0454 14.2487 37.7143 13.4538 37.7143 12.625C37.7143 11.7962 38.0454 11.0013 38.6348 10.4153C39.2242 9.82924 40.0236 9.5 40.8571 9.5C41.6907 9.5 42.4901 9.82924 43.0795 10.4153C43.6689 11.0013 44 11.7962 44 12.625C44 13.4538 43.6689 14.2487 43.0795 14.8347C42.4901 15.4208 41.6907 15.75 40.8571 15.75ZM3.14286 9.5C3.97639 9.5 4.77579 9.82924 5.36519 10.4153C5.95459 11.0013 6.28571 11.7962 6.28571 12.625C6.28571 13.4538 5.95459 14.2487 5.36519 14.8347C4.77579 15.4208 3.97639 15.75 3.14286 15.75C2.30932 15.75 1.50992 15.4208 0.920522 14.8347C0.331122 14.2487 0 13.4538 0 12.625C0 11.7962 0.331122 11.0013 0.920522 10.4153C1.50992 9.82924 2.30932 9.5 3.14286 9.5ZM22 15.75C21.1665 15.75 20.3671 15.4208 19.7777 14.8347C19.1883 14.2487 18.8571 13.4538 18.8571 12.625C18.8571 11.7962 19.1883 11.0013 19.7777 10.4153C20.3671 9.82924 21.1665 9.5 22 9.5C22.8335 9.5 23.6329 9.82924 24.2223 10.4153C24.8117 11.0013 25.1429 11.7962 25.1429 12.625C25.1429 13.4538 24.8117 14.2487 24.2223 14.8347C23.6329 15.4208 22.8335 15.75 22 15.75Z" fill="#CE8D55"/>
</svg>
