<svg width="41" height="40" viewBox="0 0 41 40" fill="none" xmlns="http://www.w3.org/2000/svg">
<path d="M30.875 38.9376C29.1875 38.9376 27.25 38.5001 25.125 37.6876C20.875 36.0001 16.1875 32.7501 12 28.5626C7.81248 24.3751 4.56248 19.6875 2.87498 15.375C0.999977 10.75 1.18748 6.93755 3.37498 4.81255C3.43748 4.75005 3.56248 4.68755 3.62498 4.62505L8.87498 1.50005C10.1875 0.75005 11.875 1.12505 12.75 2.37505L16.4375 7.87505C17.3125 9.18755 16.9375 10.9375 15.6875 11.8125L13.4375 13.375C15.0625 16 19.6875 22.4376 27.0625 27.0626L28.4375 25.0625C29.5 23.5625 31.1875 23.1251 32.5625 24.0626L38.0625 27.7501C39.3125 28.6251 39.6875 30.3125 38.9375 31.625L35.8125 36.8751C35.75 37.0001 35.6875 37.0626 35.625 37.1251C34.5 38.3126 32.875 38.9376 30.875 38.9376ZM5.24998 6.93755C4.06248 8.25005 4.12498 10.9375 5.49998 14.375C7.06248 18.3125 10.0625 22.6251 14 26.5626C17.875 30.4376 22.25 33.4376 26.125 35.0001C29.5 36.3751 32.1875 36.4376 33.5625 35.2501L36.5625 30.1251C36.5625 30.0626 36.5625 30.0626 36.5625 30.0001L31.0625 26.3125C31.0625 26.3125 30.9375 26.3751 30.8125 26.5626L29.4375 28.5626C28.5625 29.8126 26.875 30.1876 25.625 29.3751C17.75 24.5001 12.875 17.6875 11.125 14.9375C10.3125 13.625 10.625 11.9376 11.875 11.0626L14.125 9.50005V9.43755L10.4375 3.93755C10.4375 3.87505 10.375 3.87505 10.3125 3.93755L5.24998 6.93755Z" fill="#CE8D55"/>
<path d="M37.125 17.8124C36.375 17.8124 35.8125 17.2499 35.75 16.4999C35.25 10.1874 30.0625 5.12492 23.6875 4.68742C22.9375 4.62492 22.3125 3.99992 22.375 3.18742C22.4375 2.43742 23.0625 1.81242 23.875 1.87492C31.625 2.37492 37.9375 8.49992 38.5625 16.2499C38.625 16.9999 38.0625 17.6874 37.25 17.7499C37.25 17.8124 37.1875 17.8124 37.125 17.8124Z" fill="#CE8D55"/>
<path d="M30.9375 18.3749C30.25 18.3749 29.625 17.8749 29.5625 17.1249C29.1875 13.7499 26.5625 11.1249 23.1875 10.6874C22.4375 10.6249 21.875 9.87486 21.9375 9.12486C22 8.37486 22.75 7.81236 23.5 7.87486C28.1875 8.43736 31.8125 12.0624 32.375 16.7499C32.4375 17.4999 31.9375 18.1874 31.125 18.3124C31 18.3749 30.9375 18.3749 30.9375 18.3749Z" fill="#CE8D55"/>
</svg>
